# xmcd
#
# Track frame offsets: 
#        150
#        8707
#        30765
#        50950
#        70462
#        90477
#        130487
#        162712
#        180555
#        200027
#        224832
#        245595
#
# Disc length: 3611 seconds
#
# Revision: 4
# Processed by: cddbd v1.5.2PL0 Copyright (c) Steve Scherf et al.
# Submitted via: ExactAudioCopyFreeDBPlugin 1.0
#
DISCID=b60e190c
DTITLE=Little Feat - Waiting For Columbus [Deluxe Edition] [CD1]
DYEAR=2002
DGENRE=Rock
TTITLE0=Join The Band (live)
TTITLE1=Fat Man In The Bathtub (live)
TTITLE2=All That You Dream (live)
TTITLE3=Oh Atlanta (live)
TTITLE4=Old Folks' Boogie (live)
TTITLE5=Dixie Chicken (live)
TTITLE6=Tripe Face Boogie (live)
TTITLE7=Rocket In My Pocket (live)
TTITLE8=Time Loves A Hero (live)
TTITLE9=Day Or Night (live)
TTITLE10=Mercenary Territory (live)
TTITLE11=Spanish Moon (live)
EXTD=YEAR: 2002
EXTT0=
EXTT1=
EXTT2=
EXTT3=
EXTT4=
EXTT5=
EXTT6=
EXTT7=
EXTT8=
EXTT9=
EXTT10=
EXTT11=
PLAYORDER=
